<svg preserveAspectRatio="none" overflow="visible" style="display: block;" width="21" height="21" viewBox="0 0 21 21" fill="none" xmlns="http://www.w3.org/2000/svg">
<path id="Subtract" d="M10.5 0C16.299 0 21 4.70101 21 10.5C21 16.299 16.299 21 10.5 21C4.70101 21 0 16.299 0 10.5C0 4.70101 4.70101 0 10.5 0ZM10.5 3.66602C9.94793 3.66602 9.50035 4.11403 9.5 4.66602V9.5H4.66699C4.11471 9.5 3.66699 9.94772 3.66699 10.5C3.66699 11.0523 4.11471 11.5 4.66699 11.5H9.5V16.333C9.5 16.8853 9.94772 17.333 10.5 17.333C11.0523 17.333 11.5 16.8853 11.5 16.333V11.5H16.334C16.886 11.4996 17.334 11.0521 17.334 10.5C17.334 9.94793 16.886 9.50035 16.334 9.5H11.5V4.66602C11.4996 4.11403 11.0521 3.66602 10.5 3.66602Z" fill="#002D67"/>
</svg>
